<?xml version="1.0" encoding="UTF-8"?>
<svg id="Layer_1" xmlns="http://www.w3.org/2000/svg" version="1.1" xmlns:xlink="http://www.w3.org/1999/xlink" viewBox="0 0 50 50">
  <!-- Generator: Adobe Illustrator 30.0.0, SVG Export Plug-In . SVG Version: 2.1.1 Build 123)  -->
  <defs>
    <style>
      .st0 {
        fill: #fff;
      }

      .st1 {
        fill: url(#linear-gradient);
      }
    </style>
    <linearGradient id="linear-gradient" x1="4.61" y1="25" x2="104.41" y2="25" gradientUnits="userSpaceOnUse">
      <stop offset="0" stop-color="#008d9f"/>
      <stop offset="1" stop-color="#353b7c"/>
    </linearGradient>
  </defs>
  <path class="st1" d="M46.34,3.66c-3.66-3.66-9.55-3.66-21.34-3.66S7.32,0,3.66,3.66C0,7.32,0,13.21,0,25s0,17.68,3.66,21.34c3.66,3.66,9.55,3.66,21.34,3.66s17.68,0,21.34-3.66c3.66-3.66,3.66-9.55,3.66-21.34s0-17.68-3.66-21.34Z"/>
  <g>
    <path class="st0" d="M16.1,24.26c.52-.96.77-2.16.77-3.59,0-1.01-.27-1.94-.8-2.77-.53-.83-1.3-1.49-2.29-1.97-1-.48-2.19-.72-3.57-.72-1.2,0-2.35.15-3.47.46-1.11.31-2.47.98-3.23,1.51l-.08,5.7c.67-.51,1.91-1.29,2.74-1.61.83-.32,1.63-.47,2.39-.47s1.35.15,1.72.45c.37.3.55.68.55,1.15,0,.56-.27,1.14-.81,1.73s-1.43,1.41-2.66,2.46c-.66.52-1.28,1.04-1.85,1.57l-2.1,1.87v2.99h13.44v-4.46h-4.76l1.5-1.32c1.15-1.01,1.98-2,2.49-2.97h.02Z"/>
    <rect class="st0" x="26.09" y="30.52" width="5.1" height="2.49"/>
    <path class="st0" d="M33.55,15.58v4.46h6.86l-2.26,4.95h1.11c.9-1.29,2.38-2.07,3.96-2.07.51,0,1.02.08,1.49.24l1.85-4.06v-3.52h-13.02,0Z"/>
    <path class="st0" d="M46.19,29.45h-2.86l-.74-1.71.74-1.71h2.85c.14,0,.27-.08.33-.2.07-.12.06-.27-.02-.39-.54-.8-1.32-1.37-2.22-1.64-.38-.11-.78-.18-1.19-.18-1.48,0-2.83.79-3.56,2.06h-15.8l.24-.32.89-1.19,1.28-1.7v2.53h5.04v-9.42h-5.49l-7.6,10.1h-.01l-.5.66v3.45h21.94c.34.59.82,1.08,1.38,1.43.64.4,1.4.63,2.19.63,1.37,0,2.65-.67,3.41-1.81.08-.12.08-.27.02-.39-.07-.13-.2-.2-.33-.2h.01Z"/>
  </g>
</svg>